PathFileType	4	(X/Y/Z)	T1_P2_Vision_NoMovement_0_0-733.trc
DataRate	CameraRate	NumFrames	NumMarkers	Units	OrigDataRate	OrigDataStartFrame	OrigNumFrames
60	60	5	27	m	60	366	733
Frame#	Time	RHip			RKnee			RAnkle			RBigToe			RSmallToe			RHeel			LHip			LKnee			LAnkle			LBigToe			LSmallToe			LHeel			Neck			Head			Nose			RShoulder			RElbow			RWrist			RThumb			RIndex			RPinky			LShoulder			LElbow			LWrist			LThumb			LIndex			LPinky		
		X1	Y1	Z1	X2	Y2	Z2	X3	Y3	Z3	X4	Y4	Z4	X5	Y5	Z5	X6	Y6	Z6	X7	Y7	Z7	X8	Y8	Z8	X9	Y9	Z9	X10	Y10	Z10	X11	Y11	Z11	X12	Y12	Z12	X13	Y13	Z13	X14	Y14	Z14	X15	Y15	Z15	X16	Y16	Z16	X17	Y17	Z17	X18	Y18	Z18	X19	Y19	Z19	X20	Y20	Z20	X21	Y21	Z21	X22	Y22	Z22	X23	Y23	Z23	X24	Y24	Z24	X25	Y25	Z25	X26	Y26	Z26	X27	Y27	Z27
367	6.116666666666666	446.3450327533605	3693.880751115254	641.2980308197781	830.1151970944919	3724.4179022647904	650.2891194478619	1210.3237161639147	3731.520501764982	667.8811662316243	1297.8145201142747	3653.86833945816	661.6176990396922	1286.1221319330418	3691.626832505132	607.3588914240588	1283.6964225944944	3816.076716954378	746.5039890566223	451.07573641774724	3602.770822079978	853.6199035434438	835.657350387318	3602.3629862417793	854.0192633383631	1238.13580051774	3692.22191360674	868.1271827318092	1316.19448229606	3567.141310457312	813.7460528349973	1286.5449375065975	3538.2028506666147	847.725743432554	1258.7073248117727	3706.0521891544827	857.1880110722168	-109.80901821426188	3594.964502789299	757.7614535483776	-373.601545478975	3515.769545913339	735.4255508797893	-217.95269387002924	3453.310737401551	710.0531864950875	-41.68753870467103	3723.5016858147533	637.0075853202504	196.26283982040982	3681.448481679831	532.8968760697763	355.14526475753127	3542.3038640505406	618.7943202403704	434.3703667832215	3522.4123189207144	726.1120063060268	450.7648256774522	3490.40186988622	713.9401451258597	474.7035698447799	3462.5236640104067	655.9028880762988	-30.34437936115488	3481.4297502649406	890.0866366143656	222.66943122154268	3463.2633901904787	910.8065649467075	358.2868293328084	3456.3335412904567	712.5402462662535	405.1778930520262	3478.464893409947	621.5354019013392	449.8678221161303	3498.523589956164	624.6916310948233	462.596274641218	3457.363588748425	661.6905592513983
368	6.133333333333334	446.4058589860732	3693.6783630794303	641.6346393058628	831.0936059530283	3722.7976541746893	649.5428910100238	1213.4039604749346	3734.2650616344185	668.8412915631391	1297.8778092361215	3655.8344073008616	662.0499309007148	1286.1587984231019	3691.510934470646	607.2667199863322	1286.5725644002162	3818.119723811334	746.9623249957984	452.33074969711663	3602.42112462509	853.2364009365117	836.0860487464497	3603.351698954931	854.4668427241343	1239.746288719137	3691.72976393473	867.766032660006	1314.3249619298876	3564.3535212627635	812.8666012302903	1287.8137252250724	3537.4099571794854	849.1064837185493	1259.4891147107348	3704.3576756837106	856.194393146896	-109.81448840422408	3594.9728618029912	757.7799142456025	-373.84497468712306	3521.260024258714	738.3111143063009	-218.0420135917962	3453.0569883370813	708.7349657068451	-40.6196905071492	3722.5075991258163	636.5956470171078	195.76774123656224	3677.364169882626	529.6255638055399	355.586981552964	3542.4744778016616	618.8452408789186	434.33181589771135	3522.251200298285	726.1428003700491	450.20255272105493	3488.258014273024	713.3987676886818	474.93294862843646	3460.4391467051155	653.9531464963662	-30.313821322010195	3481.2047027527046	889.9153072823476	223.29091069374533	3463.5117976078445	911.0138991343631	357.80144216085193	3456.167552824714	712.5447104212415	406.56804079369994	3478.9430325292415	621.7032593583893	449.716917978884	3497.908179828699	624.6850955329113	462.25420790192453	3456.1862689985664	660.6244901742368
369	6.15	446.40702665585496	3693.427022204455	641.1489192696077	832.3038384081517	3720.8154974756726	648.4850833549244	1216.054788621374	3737.5578352144757	671.2973750321123	1298.0970952891116	3657.4793376230696	661.7699677504904	1286.2544336709307	3691.2135507188814	607.0844209319193	1287.7056627217532	3818.8444894282843	747.1098781489005	454.4878599365282	3602.997459357977	852.742179546215	837.4032839718816	3603.7395573026974	854.3716411918303	1241.084940491198	3689.6375667591083	866.5313328421989	1311.4105770376148	3557.6825781206817	810.7091279781458	1288.2206489091911	3536.1327823253805	849.8017586309682	1260.4631115331867	3702.1819676071327	854.9306433444866	-109.78737711856968	3596.63029481705	759.2116333254035	-374.4079843427421	3529.0540491219353	741.1776544450818	-218.05261062993	3451.4394991797917	706.3553239109169	-40.11220319685211	3722.0980231588173	636.5104609101652	195.50771348793728	3675.3240163768633	527.9541698473042	355.1840883309055	3541.9794300976887	618.6503296414623	434.19170309380894	3522.059032505834	726.2171555839835	450.8054340715056	3489.366647251965	713.6095635655767	475.1788126176702	3459.1064928885917	652.6987847464845	-30.307772537622117	3480.9376317291367	889.6967366076464	222.40980756859136	3463.29050021916	910.9350059523347	356.67901394799645	3455.7691250599796	712.8363749550974	408.3442220353701	3480.469539413695	622.1428698908428	449.62233097407704	3497.9157959505123	624.5005032810325	462.14453877718273	3455.8091267115433	660.33414534189
370	6.166666666666667	446.4348670811049	3693.626137761805	640.4215890403395	833.172393356867	3719.743302961561	647.4315998061934	1216.9340099210194	3738.63705676064	672.7820568823275	1298.1701089321	3656.9551603073437	660.379043686594	1286.5035102853888	3690.503771786274	606.6851935571777	1286.4778319883087	3817.869890125359	746.8703940285982	457.0255107304207	3604.5156655609076	851.8503287466231	838.7462274995621	3604.250746941504	853.8070014160467	1241.8676496542196	3687.9890559212745	865.5846038051297	1309.1716081778113	3550.4913903013494	808.3021444010799	1288.13881170848	3535.57790107449	849.4431483435962	1261.1531176256476	3700.6978278207944	854.0741007969866	-109.70569804999636	3600.8209818388673	762.8203432337135	-375.2942659884727	3534.241849705937	742.1954272515491	-217.74477009256526	3449.2529140272904	703.3024282348098	-40.04619407558045	3722.180297388459	636.5261137099654	195.46265121159206	3675.0641649204335	527.660414688289	354.3874859614697	3541.2694085714493	618.3762755067845	433.9963313779889	3522.0466462359295	726.2483108101213	452.1813967283367	3493.8971156664716	714.7156309183326	475.34876699958687	3458.775110275742	652.3738276750612	-30.305763616590376	3481.0561162977524	889.8304114483883	220.79903362872471	3462.838430213073	910.7041260403781	355.57919501004636	3455.3942111911033	713.4532016755923	409.73510209469254	3484.379488906638	623.2889641743469	449.8177677835253	3500.373202800657	624.4475733847374	461.8906008104369	3454.432181185134	659.0372653852089
371	6.183333333333334	446.4736079424889	3693.9059120177385	639.9960104087959	833.3109025408174	3720.1436412140174	646.6413166135476	1215.876995843629	3736.3476427951427	671.9082790692703	1298.3034805452653	3654.902640302538	658.4738310884397	1286.8785672678591	3689.5267971845524	606.1494235086216	1284.6058951960456	3816.509029904406	746.5505364926579	459.1375119294513	3605.9301690819275	850.472494340698	838.98854998754	3604.5733486955796	852.8148427560861	1242.2960082421819	3688.2276721050007	865.7852606144264	1308.9456566777462	3547.7268075415177	807.266019550601	1288.1752665963315	3536.4133683330538	848.5790442746853	1261.153403799837	3700.7445723809915	854.106057782851	-109.59782037507262	3606.3996616979925	767.5948964508694	-376.7349775675853	3537.2668635183513	743.0641078396932	-217.05447035129305	3448.692278786189	701.4820035951628	-40.12358617720781	3722.5515988896377	636.1522331870282	195.5050500683785	3675.4113901156898	527.8601397570658	353.8678593542388	3540.9055100095984	618.2353502969626	433.8740784468289	3522.5593819755113	726.0003186287549	453.4914904699853	3500.401557566228	716.4657328533392	475.4536279183267	3458.887488311496	652.4594776751304	-30.26909146470875	3482.3097150946705	891.0160646419613	219.97694362260012	3462.592229922949	910.5486580966351	355.0580914439929	3454.9024397273506	713.6820279322058	410.52682256672625	3491.288776854027	625.2992395535127	450.5006101628592	3506.477234103985	624.6582573449278	461.5354817779688	3451.3655398151377	656.0650271882124
